<?xml version="1.0" encoding="utf-8"?>
<!-- Generator: Adobe Illustrator 25.3.1, SVG Export Plug-In . SVG Version: 6.00 Build 0)  -->
<svg version="1.1" id="Layer_1" xmlns="http://www.w3.org/2000/svg" xmlns:xlink="http://www.w3.org/1999/xlink" x="0px" y="0px"
	 viewBox="0 0 32 32" style="enable-background:new 0 0 32 32;" xml:space="preserve">
<style type="text/css">
	.st0{fill:none;}
	.st1{fill:#C60B1E;}
	.st2{fill:#FFC400;}
</style>
<g>
	<path class="st0" d="M0,15.2c0,0.3,0,0.6,0,0.8s0,0.6,0,0.8V15.2z"/>
	<path class="st1" d="M16,0C10.1,0,5,3.2,2.2,7.9h27.6C27,3.2,21.9,0,16,0z"/>
	<path class="st1" d="M16,32c5.9,0,11.1-3.2,13.8-8H2.2C4.9,28.8,10.1,32,16,32z"/>
	<path class="st2" d="M2.2,24h27.7c1.4-2.4,2.2-5.1,2.2-8c0-3-0.8-5.7-2.2-8.1H2.2c-1.3,2.1-2,4.6-2.2,7.2v1.7
		C0.2,19.4,0.9,21.9,2.2,24z"/>
</g>
</svg>
