<?xml version="1.0" encoding="utf-8"?>
<!-- Generator: Adobe Illustrator 25.3.1, SVG Export Plug-In . SVG Version: 6.00 Build 0)  -->
<svg version="1.1" id="Layer_1" xmlns="http://www.w3.org/2000/svg" xmlns:xlink="http://www.w3.org/1999/xlink" x="0px" y="0px"
	 viewBox="0 0 32 32" style="enable-background:new 0 0 32 32;" xml:space="preserve">
<style type="text/css">
	.st0{fill:none;}
	.st1{fill:#006AA7;}
	.st2{fill:#FECC00;}
</style>
<g>
	<path class="st0" d="M17.8,0.1C17.2,0,16.6,0,16,0s-1.2,0-1.8,0.1H17.8z"/>
	<path class="st1" d="M0.3,19.3c1.3,6.2,6.1,11,12.3,12.3V19.3H0.3z"/>
	<path class="st1" d="M12.6,0.4C6.4,1.7,1.5,6.6,0.3,12.9h12.3V0.4z"/>
	<path class="st1" d="M19,31.7c6.3-1.2,11.3-6.1,12.6-12.4H19V31.7z"/>
	<path class="st1" d="M31.7,12.9C30.4,6.5,25.4,1.5,19,0.3v12.6H31.7z"/>
	<path class="st2" d="M12.6,0.4v12.5H0.3c-0.2,1-0.3,2-0.3,3.1c0,1.1,0.1,2.2,0.3,3.3h12.3v12.3c1.1,0.2,2.2,0.4,3.4,0.4
		c1,0,2-0.1,3-0.3V19.3h12.6c0.2-1.1,0.3-2.2,0.3-3.3c0-1.1-0.1-2.1-0.3-3.1H19V0.3c-0.4-0.1-0.8-0.1-1.3-0.2h-3.5
		C13.7,0.2,13.2,0.2,12.6,0.4z"/>
</g>
</svg>
