<svg xmlns="http://www.w3.org/2000/svg" width="19.588" height="15" viewBox="0 0 19.588 15">
  <path id="Icon_ionic-ios-checkmark" data-name="Icon ionic-ios-checkmark" d="M29.919,13.962l-1.6-1.646a.344.344,0,0,0-.255-.109h0a.33.33,0,0,0-.255.109l-11.1,11.18-4.039-4.039a.352.352,0,0,0-.509,0l-1.619,1.619a.362.362,0,0,0,0,.518l5.094,5.094a1.611,1.611,0,0,0,1.064.518,1.688,1.688,0,0,0,1.055-.5h.009L29.928,14.48A.389.389,0,0,0,29.919,13.962Z" transform="translate(-10.434 -12.206)" fill="#045fa0"/>
</svg>
