<svg xmlns="http://www.w3.org/2000/svg" width="15" height="15" viewBox="0 0 15 15">
  <path id="Icon_metro-instagram" data-name="Icon metro-instagram" d="M15.08,1.928H5.061a2.5,2.5,0,0,0-2.49,2.49v10.02a2.5,2.5,0,0,0,2.49,2.49H15.08a2.5,2.5,0,0,0,2.49-2.49V4.418A2.5,2.5,0,0,0,15.08,1.928ZM7.372,8.491h5.4a2.856,2.856,0,1,1-5.4,0Zm8.323,0v5.624a.94.94,0,0,1-.937.938H5.383a.94.94,0,0,1-.937-.937V8.491H5.912a4.263,4.263,0,1,0,8.317,0Zm0-3.282a.47.47,0,0,1-.469.469h-.937a.47.47,0,0,1-.469-.469V4.272a.47.47,0,0,1,.469-.469h.938a.47.47,0,0,1,.469.469Z" transform="translate(-2.571 -1.928)" fill="#a0ce22"/>
</svg>
