<?xml version="1.0" encoding="UTF-8"?><svg id="Layer_2" xmlns="http://www.w3.org/2000/svg" viewBox="0 0 417.85 82.35"><defs><style>.cls-1{fill:#a4d321;}.cls-2{fill:#fff;}</style></defs><g id="Layer_1-2"><g><circle class="cls-1" cx="46.3" cy="13.52" r="13.52"/><path class="cls-2" d="M15.48,0V63.82c0,2.64,.45,4.48,1.35,5.53,.9,1.06,2.41,1.58,4.52,1.58,1.28,0,2.33-.09,3.16-.28,.83-.19,1.88-.47,3.16-.85l-1.35,10.17c-1.28,.75-2.88,1.34-4.8,1.75-1.92,.41-3.82,.62-5.7,.62-5.5,0-9.51-1.34-12.03-4.01-2.52-2.67-3.78-6.95-3.78-12.82V0H15.48Z"/><path class="cls-2" d="M68.12,82.35V25.87h13.89l.57,10.17c1.88-3.77,4.46-6.59,7.74-8.47,3.28-1.88,6.91-2.82,10.9-2.82s7.74,.94,11.01,2.82c3.28,1.88,5.74,4.67,7.4,8.36,1.2-2.49,2.82-4.56,4.86-6.21,2.03-1.66,4.29-2.9,6.78-3.73,2.48-.83,5.01-1.24,7.57-1.24,3.69,0,7.06,.75,10.11,2.26,3.05,1.51,5.5,3.77,7.34,6.78,1.84,3.01,2.73,6.85,2.65,11.52l-.11,37.05h-15.36V48.35c0-4.14-.9-7.08-2.71-8.81-1.81-1.73-4.14-2.6-7-2.6-2.26,0-4.35,.56-6.27,1.69s-3.43,2.81-4.52,5.03c-1.09,2.22-1.64,4.99-1.64,8.3v30.39h-15.48V48.35c0-4.14-.92-7.08-2.77-8.81-1.85-1.73-4.2-2.6-7.06-2.6-1.96,0-3.9,.53-5.82,1.58-1.92,1.05-3.5,2.71-4.74,4.97s-1.86,5.23-1.86,8.92v29.94h-15.48Z"/><path class="cls-2" d="M186.33,78.85c-4.41-2.33-7.81-5.7-10.22-10.11-2.41-4.41-3.61-9.66-3.61-15.76s1.2-11.35,3.61-15.76c2.41-4.41,5.76-7.78,10.05-10.11,4.29-2.33,9.26-3.5,14.91-3.5s10.37,1.13,14.4,3.39c4.03,2.26,7.12,5.39,9.26,9.38,2.15,3.99,3.22,8.51,3.22,13.56,0,1.51-.04,2.92-.11,4.24-.08,1.32-.19,2.54-.34,3.67h-45.07v-10.73h38.29l-7.57,4.75c.3-5.35-.6-9.49-2.71-12.43-2.11-2.94-5.27-4.41-9.49-4.41-2.94,0-5.42,.68-7.46,2.03-2.03,1.36-3.58,3.39-4.63,6.1-1.06,2.71-1.58,6.06-1.58,10.05s.56,7.19,1.69,9.83c1.13,2.64,2.78,4.59,4.97,5.87,2.18,1.28,4.78,1.92,7.79,1.92,3.24,0,5.87-.62,7.91-1.86,2.03-1.24,3.65-3.03,4.86-5.37l12.31,4.74c-1.81,4.37-4.95,7.79-9.43,10.28-4.48,2.48-9.66,3.73-15.53,3.73s-11.13-1.17-15.53-3.5Z"/><path class="cls-2" d="M262.3,82.35c-4.67,0-8.83-1.17-12.48-3.5-3.66-2.33-6.52-5.69-8.59-10.05-2.07-4.37-3.11-9.6-3.11-15.7s1.09-11.58,3.28-15.98c2.18-4.41,5.14-7.76,8.87-10.05,3.73-2.3,7.92-3.45,12.6-3.45,4.97,0,9.07,1.43,12.31,4.29,3.24,2.86,5.35,6.55,6.33,11.07l-1.47,1.81V0h15.48V81.22h-13.9l-1.02-17.17,1.92,.9c-.53,3.54-1.73,6.61-3.61,9.21-1.88,2.6-4.26,4.61-7.12,6.04-2.86,1.43-6.03,2.15-9.49,2.15Zm4.52-11.86c2.71,0,5.04-.7,7-2.09,1.96-1.39,3.48-3.44,4.58-6.16,1.09-2.71,1.64-5.95,1.64-9.72s-.53-6.68-1.58-9.21c-1.06-2.52-2.56-4.46-4.52-5.82-1.96-1.36-4.26-2.03-6.89-2.03-4.22,0-7.51,1.49-9.89,4.46-2.37,2.98-3.56,7.32-3.56,13.05s1.17,10.07,3.5,13.05c2.33,2.98,5.57,4.46,9.72,4.46Z"/><path class="cls-2" d="M337.53,23.61c5.72,0,10.75,1.17,15.08,3.5,4.33,2.34,7.72,5.69,10.17,10.05,2.45,4.37,3.67,9.64,3.67,15.81s-1.23,11.35-3.67,15.76c-2.45,4.41-5.84,7.78-10.17,10.11-4.33,2.34-9.36,3.5-15.08,3.5s-10.66-1.17-15.03-3.5c-4.37-2.33-7.78-5.7-10.22-10.11-2.45-4.41-3.67-9.66-3.67-15.76s1.22-11.45,3.67-15.81c2.45-4.37,5.86-7.72,10.22-10.05,4.37-2.33,9.38-3.5,15.03-3.5Zm0,11.52c-2.86,0-5.29,.66-7.29,1.98-2,1.32-3.52,3.3-4.58,5.93-1.05,2.64-1.58,5.95-1.58,9.94s.53,7.31,1.58,9.94c1.05,2.64,2.58,4.61,4.58,5.93,1.99,1.32,4.42,1.98,7.29,1.98s5.18-.66,7.17-1.98c2-1.32,3.52-3.29,4.58-5.93,1.05-2.63,1.58-5.95,1.58-9.94s-.53-7.3-1.58-9.94c-1.06-2.63-2.58-4.61-4.58-5.93-2-1.32-4.39-1.98-7.17-1.98Z"/><path class="cls-2" d="M416.83,24.74v11.52h-43.94v-11.52h43.94Zm-18.07-17.28V62.81c0,2.71,.7,4.69,2.09,5.93s3.29,1.86,5.71,1.86c1.88,0,3.54-.28,4.97-.85,1.43-.56,2.71-1.34,3.84-2.32l2.48,10.28c-1.81,1.43-4.07,2.56-6.78,3.39-2.71,.83-5.57,1.24-8.59,1.24-3.77,0-7.1-.56-10-1.69-2.9-1.13-5.16-2.94-6.78-5.42-1.62-2.48-2.43-5.8-2.43-9.94V11.75l15.48-4.29Z"/><path class="cls-2" d="M46.3,32.84c-2.78,0-5.4-.67-7.74-1.82v51.34h15.48V31.02c-2.34,1.15-4.96,1.82-7.74,1.82Z"/></g></g></svg>