<svg xmlns="http://www.w3.org/2000/svg" width="160" height="31.537" viewBox="0 0 160 31.537">
  <g id="Layer_1-2" transform="translate(-0.01)">
    <g id="Group_1" data-name="Group 1" transform="translate(0.01 0)">
      <circle id="Ellipse_1" data-name="Ellipse 1" cx="5.177" cy="5.177" r="5.177" transform="translate(12.548 0)" fill="#a4d321"/>
      <path id="Path_1" data-name="Path 1" d="M5.934,0V24.438a3.3,3.3,0,0,0,.517,2.118,2.162,2.162,0,0,0,1.731.605,5.568,5.568,0,0,0,1.21-.107c.318-.073.72-.18,1.21-.325l-.517,3.894a6.193,6.193,0,0,1-1.838.67,10.433,10.433,0,0,1-2.183.237,6.081,6.081,0,0,1-4.607-1.536Q.01,28.461.01,25.085V0Z" transform="translate(-0.01 0)" fill="#fff"/>
      <path id="Path_2" data-name="Path 2" d="M68.12,46.806V25.179h5.319l.218,3.894a7.439,7.439,0,0,1,2.964-3.243,8.24,8.24,0,0,1,4.174-1.08,8.386,8.386,0,0,1,4.216,1.08,6.765,6.765,0,0,1,2.834,3.2,6.814,6.814,0,0,1,1.861-2.378,8.123,8.123,0,0,1,2.6-1.428,9.087,9.087,0,0,1,2.9-.475,8.6,8.6,0,0,1,3.871.865,6.765,6.765,0,0,1,2.811,2.6,8.068,8.068,0,0,1,1.015,4.411l-.042,14.187H96.973V33.787a4.537,4.537,0,0,0-1.038-3.374,3.719,3.719,0,0,0-2.68-1,4.648,4.648,0,0,0-2.4.647,4.43,4.43,0,0,0-1.731,1.926,7.186,7.186,0,0,0-.628,3.178V46.806H82.568V33.787a4.474,4.474,0,0,0-1.061-3.374,3.8,3.8,0,0,0-2.7-1,4.6,4.6,0,0,0-4.044,2.508,7.085,7.085,0,0,0-.712,3.416V46.806H68.12Z" transform="translate(-42.039 -15.273)" fill="#fff"/>
      <path id="Path_3" data-name="Path 3" d="M177.8,44.763a9.35,9.35,0,0,1-3.913-3.871,12.4,12.4,0,0,1-1.382-6.035,12.4,12.4,0,0,1,1.382-6.035,9.465,9.465,0,0,1,3.848-3.871,11.777,11.777,0,0,1,5.709-1.34,11.019,11.019,0,0,1,5.514,1.3A8.844,8.844,0,0,1,192.5,28.5a10.769,10.769,0,0,1,1.233,5.192c0,.578-.015,1.118-.042,1.624s-.073.973-.13,1.405H176.3V32.612h14.662l-2.9,1.819a7.329,7.329,0,0,0-1.038-4.76,4.179,4.179,0,0,0-3.634-1.689,5.056,5.056,0,0,0-2.857.777,4.793,4.793,0,0,0-1.773,2.336,10.624,10.624,0,0,0-.605,3.848,9.488,9.488,0,0,0,.647,3.764,4.59,4.59,0,0,0,1.9,2.248,6.6,6.6,0,0,0,6.012.023,5.067,5.067,0,0,0,1.861-2.056l4.714,1.815a7.9,7.9,0,0,1-3.611,3.936,12.082,12.082,0,0,1-5.947,1.428,12.623,12.623,0,0,1-5.947-1.34Z" transform="translate(-106.45 -14.569)" fill="#fff"/>
      <path id="Path_4" data-name="Path 4" d="M247.379,31.534a8.691,8.691,0,0,1-4.779-1.34,9,9,0,0,1-3.289-3.848,13.936,13.936,0,0,1-1.191-6.012,13.794,13.794,0,0,1,1.256-6.119,9.117,9.117,0,0,1,3.4-3.848A9,9,0,0,1,247.6,9.045a6.858,6.858,0,0,1,4.714,1.643,7.648,7.648,0,0,1,2.424,4.239l-.563.693V0H260.1V31.1h-5.323l-.391-6.575.735.345a7.916,7.916,0,0,1-1.382,3.527,7.4,7.4,0,0,1-2.726,2.313,8.02,8.02,0,0,1-3.634.823Zm1.731-4.541a4.511,4.511,0,0,0,2.68-.8,5.161,5.161,0,0,0,1.754-2.359,9.961,9.961,0,0,0,.628-3.722,8.984,8.984,0,0,0-.6-3.527,4.969,4.969,0,0,0-1.731-2.229,4.512,4.512,0,0,0-2.638-.777,4.582,4.582,0,0,0-3.787,1.708,7.882,7.882,0,0,0-1.363,5,7.981,7.981,0,0,0,1.34,5,4.456,4.456,0,0,0,3.722,1.708Z" transform="translate(-146.943 0)" fill="#fff"/>
      <path id="Path_5" data-name="Path 5" d="M319.684,23.61a12.006,12.006,0,0,1,5.774,1.34,9.658,9.658,0,0,1,3.894,3.848,12.2,12.2,0,0,1,1.405,6.054,12.207,12.207,0,0,1-1.405,6.035,9.573,9.573,0,0,1-3.894,3.871,13.069,13.069,0,0,1-11.53,0,9.5,9.5,0,0,1-3.913-3.871,12.237,12.237,0,0,1-1.405-6.035,12.262,12.262,0,0,1,1.405-6.054,9.587,9.587,0,0,1,3.913-3.848A12.046,12.046,0,0,1,319.684,23.61Zm0,4.411a4.955,4.955,0,0,0-2.792.758,4.74,4.74,0,0,0-1.754,2.271,10.366,10.366,0,0,0-.605,3.806,10.351,10.351,0,0,0,.605,3.806,4.7,4.7,0,0,0,1.754,2.271,4.938,4.938,0,0,0,2.792.758,4.784,4.784,0,0,0,2.746-.758,4.722,4.722,0,0,0,1.754-2.271,10.351,10.351,0,0,0,.605-3.806,10.366,10.366,0,0,0-.605-3.806,4.74,4.74,0,0,0-1.754-2.271A4.871,4.871,0,0,0,319.684,28.021Z" transform="translate(-190.44 -14.569)" fill="#fff"/>
      <path id="Path_6" data-name="Path 6" d="M389.716,14.077v4.411H372.89V14.077h16.826ZM382.8,7.46V28.655a2.9,2.9,0,0,0,.8,2.271,3.165,3.165,0,0,0,2.186.712,5.121,5.121,0,0,0,1.9-.325,5.029,5.029,0,0,0,1.47-.888l.95,3.936a7.855,7.855,0,0,1-2.6,1.3,11.165,11.165,0,0,1-3.289.475,10.492,10.492,0,0,1-3.829-.647,5.32,5.32,0,0,1-2.6-2.075,6.88,6.88,0,0,1-.931-3.806V9.1l5.928-1.643Z" transform="translate(-230.106 -4.603)" fill="#fff"/>
      <path id="Path_7" data-name="Path 7" d="M41.524,31.717a6.7,6.7,0,0,1-2.964-.7V50.679h5.928V31.02a6.7,6.7,0,0,1-2.964.7Z" transform="translate(-23.798 -19.142)" fill="#fff"/>
    </g>
  </g>
</svg>
