<svg xmlns="http://www.w3.org/2000/svg" width="15" height="15" viewBox="0 0 15 15">
  <path id="Icon_awesome-envelope-open" data-name="Icon awesome-envelope-open" d="M15,13.594A1.406,1.406,0,0,1,13.594,15H1.406A1.406,1.406,0,0,1,0,13.594V5.881A1.406,1.406,0,0,1,.539,4.774c.73-.572,1.333-1.036,4.811-3.56C5.842.855,6.82-.01,7.5,0c.68-.01,1.658.855,2.151,1.214,3.477,2.524,4.081,2.988,4.811,3.56A1.406,1.406,0,0,1,15,5.881Zm-1.924-5.76a.234.234,0,0,0-.332-.056c-.669.494-1.625,1.193-3.093,2.258C9.158,10.4,8.18,11.26,7.5,11.25c-.68.01-1.657-.854-2.151-1.214C3.881,8.971,2.925,8.272,2.256,7.778a.234.234,0,0,0-.332.056l-.266.387a.234.234,0,0,0,.054.321c.671.5,1.625,1.192,3.085,2.252.594.433,1.656,1.4,2.7,1.394s2.108-.96,2.7-1.394c1.46-1.06,2.415-1.757,3.085-2.252a.234.234,0,0,0,.054-.321l-.266-.387Z"/>
</svg>
