<svg xmlns="http://www.w3.org/2000/svg" width="16.878" height="15" viewBox="0 0 16.878 15">
  <path id="Icon_awesome-edit" data-name="Icon awesome-edit" d="M11.8,2.442,14.44,5.085a.287.287,0,0,1,0,.4l-6.4,6.4-2.719.3a.57.57,0,0,1-.63-.63l.3-2.719,6.4-6.4A.287.287,0,0,1,11.8,2.442Zm4.747-.671L15.114.341a1.146,1.146,0,0,0-1.618,0L12.459,1.378a.287.287,0,0,0,0,.4L15.1,4.426a.287.287,0,0,0,.4,0l1.037-1.037a1.146,1.146,0,0,0,0-1.618Zm-5.292,8.378v2.983H1.875V3.755H8.609a.36.36,0,0,0,.249-.1L10.03,2.48a.352.352,0,0,0-.249-.6H1.407A1.407,1.407,0,0,0,0,3.286V13.6a1.407,1.407,0,0,0,1.407,1.407H11.721A1.407,1.407,0,0,0,13.128,13.6V8.977a.352.352,0,0,0-.6-.249L11.355,9.9A.36.36,0,0,0,11.252,10.149Z" transform="translate(0 -0.007)" fill="#1a6da8"/>
</svg>
